<?xml version="1.0" encoding="utf-8"?>
<!-- Generator: Adobe Illustrator 23.0.4, SVG Export Plug-In . SVG Version: 6.00 Build 0)  -->
<svg version="1.1" id="Layer_1" xmlns="http://www.w3.org/2000/svg" xmlns:xlink="http://www.w3.org/1999/xlink" x="0px" y="0px"
	 viewBox="0 0 512 512" style="enable-background:new 0 0 512 512;" xml:space="preserve">
<style type="text/css">
	.st0{clip-path:url(#SVGID_2_);fill:#FFFFFF;}
</style>
<path d="M508.86,255.49c0,4.07-0.1,8.13-0.3,12.19c-0.2,4.06-0.51,8.12-0.91,12.16c-0.41,4.05-0.91,8.08-1.52,12.11
	c-0.61,4.02-1.31,8.03-2.12,12.02c-0.81,3.99-1.71,7.96-2.72,11.9c-1.01,3.95-2.11,7.86-3.31,11.76c-1.2,3.89-2.5,7.75-3.89,11.58
	c-1.39,3.83-2.88,7.62-4.47,11.38c-1.58,3.76-3.26,7.47-5.03,11.15c-1.77,3.68-3.63,7.31-5.58,10.89
	c-1.95,3.59-3.99,7.12-6.12,10.61c-2.13,3.49-4.34,6.92-6.64,10.3c-2.3,3.38-4.68,6.71-7.15,9.97c-2.47,3.27-5.01,6.47-7.64,9.62
	s-5.33,6.22-8.11,9.24c-2.78,3.01-5.63,5.96-8.56,8.83c-2.93,2.88-5.92,5.68-8.99,8.41c-3.07,2.73-6.2,5.39-9.4,7.97
	c-3.2,2.58-6.46,5.08-9.79,7.5c-3.32,2.42-6.71,4.76-10.15,7.02c-3.44,2.26-6.94,4.43-10.49,6.53c-3.55,2.09-7.15,4.09-10.8,6.01
	c-3.65,1.92-7.35,3.75-11.09,5.48c-3.74,1.74-7.53,3.39-11.35,4.94c-3.82,1.56-7.69,3.02-11.58,4.39c-3.9,1.37-7.83,2.65-11.79,3.83
	c-3.96,1.18-7.95,2.26-11.96,3.25c-4.02,0.99-8.05,1.88-12.11,2.67c-4.06,0.79-8.14,1.49-12.23,2.09c-4.09,0.6-8.2,1.09-12.32,1.49
	c-4.12,0.4-8.25,0.7-12.38,0.9c-4.13,0.2-8.27,0.3-12.41,0.3s-8.28-0.1-12.41-0.3c-4.13-0.2-8.26-0.5-12.38-0.9
	c-4.12-0.4-8.23-0.9-12.32-1.49c-4.09-0.6-8.17-1.29-12.23-2.09c-4.06-0.79-8.1-1.68-12.11-2.67c-4.02-0.99-8-2.07-11.96-3.25
	c-3.96-1.18-7.89-2.46-11.79-3.83c-3.9-1.37-7.76-2.83-11.58-4.39c-3.82-1.56-7.61-3.2-11.35-4.94c-3.74-1.74-7.44-3.57-11.09-5.48
	c-3.65-1.92-7.25-3.92-10.8-6.01c-3.55-2.09-7.05-4.27-10.49-6.53c-3.44-2.26-6.83-4.6-10.15-7.02c-3.32-2.42-6.59-4.92-9.79-7.5
	c-3.2-2.58-6.33-5.24-9.4-7.97c-3.07-2.73-6.06-5.53-8.99-8.41c-2.93-2.88-5.78-5.82-8.56-8.83c-2.78-3.01-5.48-6.09-8.11-9.24
	s-5.17-6.35-7.64-9.62c-2.47-3.27-4.85-6.59-7.15-9.97c-2.3-3.38-4.51-6.82-6.64-10.3c-2.13-3.49-4.17-7.03-6.12-10.61
	c-1.95-3.59-3.81-7.22-5.58-10.89c-1.77-3.68-3.45-7.39-5.03-11.15c-1.58-3.76-3.07-7.55-4.47-11.38
	c-1.39-3.83-2.69-7.69-3.89-11.58c-1.2-3.89-2.31-7.81-3.31-11.76c-1.01-3.95-1.91-7.91-2.72-11.9c-0.81-3.99-1.51-7.99-2.12-12.02
	c-0.61-4.02-1.11-8.06-1.52-12.11c-0.41-4.05-0.71-8.1-0.91-12.16c-0.2-4.06-0.3-8.13-0.3-12.19s0.1-8.13,0.3-12.19
	c0.2-4.06,0.51-8.12,0.91-12.16s0.91-8.08,1.52-12.11c0.61-4.02,1.31-8.03,2.12-12.02c0.81-3.99,1.71-7.96,2.72-11.9
	c1.01-3.95,2.11-7.86,3.31-11.76c1.2-3.89,2.5-7.75,3.89-11.58c1.39-3.83,2.88-7.62,4.47-11.38c1.58-3.76,3.26-7.47,5.03-11.15
	c1.77-3.68,3.63-7.31,5.58-10.89c1.95-3.59,3.99-7.12,6.12-10.61c2.13-3.49,4.34-6.92,6.64-10.3c2.3-3.38,4.68-6.71,7.15-9.97
	c2.47-3.27,5.01-6.47,7.64-9.62s5.33-6.22,8.11-9.24c2.78-3.01,5.63-5.96,8.56-8.83c2.93-2.88,5.92-5.68,8.99-8.41
	c3.07-2.73,6.2-5.39,9.4-7.97c3.2-2.58,6.46-5.08,9.79-7.5c3.32-2.42,6.71-4.76,10.15-7.02c3.44-2.26,6.94-4.43,10.49-6.53
	c3.55-2.09,7.15-4.09,10.8-6.01c3.65-1.92,7.35-3.75,11.09-5.48c3.74-1.74,7.53-3.39,11.35-4.94s7.69-3.02,11.58-4.39
	c3.9-1.37,7.83-2.65,11.79-3.83c3.96-1.18,7.95-2.26,11.96-3.25c4.02-0.99,8.05-1.88,12.11-2.67c4.06-0.79,8.14-1.49,12.23-2.09
	c4.09-0.6,8.2-1.09,12.32-1.49c4.12-0.4,8.25-0.7,12.38-0.9c4.13-0.2,8.27-0.3,12.41-0.3s8.28,0.1,12.41,0.3
	c4.13,0.2,8.26,0.5,12.38,0.9c4.12,0.4,8.23,0.9,12.32,1.49c4.09,0.6,8.17,1.29,12.23,2.09c4.06,0.79,8.1,1.68,12.11,2.67
	c4.02,0.99,8,2.07,11.96,3.25c3.96,1.18,7.89,2.46,11.79,3.83c3.9,1.37,7.76,2.83,11.58,4.39c3.82,1.56,7.61,3.2,11.35,4.94
	c3.74,1.74,7.44,3.57,11.09,5.48c3.65,1.92,7.25,3.92,10.8,6.01c3.55,2.09,7.05,4.27,10.49,6.53c3.44,2.26,6.83,4.6,10.15,7.02
	c3.32,2.42,6.59,4.92,9.79,7.5c3.2,2.58,6.33,5.24,9.4,7.97c3.07,2.73,6.06,5.53,8.99,8.41c2.93,2.88,5.78,5.82,8.56,8.83
	c2.78,3.01,5.48,6.09,8.11,9.24s5.17,6.35,7.64,9.62c2.47,3.27,4.85,6.59,7.15,9.97c2.3,3.38,4.51,6.82,6.64,10.3
	c2.13,3.49,4.17,7.03,6.12,10.61c1.95,3.59,3.81,7.22,5.58,10.89c1.77,3.68,3.45,7.39,5.03,11.15c1.58,3.76,3.07,7.55,4.47,11.38
	c1.39,3.83,2.69,7.69,3.89,11.58c1.2,3.89,2.31,7.81,3.31,11.76c1.01,3.95,1.91,7.91,2.72,11.9c0.81,3.99,1.51,7.99,2.12,12.02
	c0.61,4.02,1.11,8.06,1.52,12.11c0.41,4.05,0.71,8.1,0.91,12.16C508.76,247.36,508.86,251.43,508.86,255.49L508.86,255.49z"/>
<g>
	<defs>
		<path id="SVGID_1_" d="M508.86,255.49c0,4.07-0.1,8.13-0.3,12.19c-0.2,4.06-0.51,8.12-0.91,12.16c-0.41,4.05-0.91,8.08-1.52,12.11
			c-0.61,4.02-1.31,8.03-2.12,12.02c-0.81,3.99-1.71,7.96-2.72,11.9c-1.01,3.95-2.11,7.86-3.31,11.76c-1.2,3.89-2.5,7.75-3.89,11.58
			c-1.39,3.83-2.88,7.62-4.47,11.38c-1.58,3.76-3.26,7.47-5.03,11.15c-1.77,3.68-3.63,7.31-5.58,10.89
			c-1.95,3.59-3.99,7.12-6.12,10.61c-2.13,3.49-4.34,6.92-6.64,10.3c-2.3,3.38-4.68,6.71-7.15,9.97c-2.47,3.27-5.01,6.47-7.64,9.62
			s-5.33,6.22-8.11,9.24c-2.78,3.01-5.63,5.96-8.56,8.83c-2.93,2.88-5.92,5.68-8.99,8.41c-3.07,2.73-6.2,5.39-9.4,7.97
			c-3.2,2.58-6.46,5.08-9.79,7.5c-3.32,2.42-6.71,4.76-10.15,7.02c-3.44,2.26-6.94,4.43-10.49,6.53c-3.55,2.09-7.15,4.09-10.8,6.01
			c-3.65,1.92-7.35,3.75-11.09,5.48c-3.74,1.74-7.53,3.39-11.35,4.94c-3.82,1.56-7.69,3.02-11.58,4.39
			c-3.9,1.37-7.83,2.65-11.79,3.83c-3.96,1.18-7.95,2.26-11.96,3.25c-4.02,0.99-8.05,1.88-12.11,2.67
			c-4.06,0.79-8.14,1.49-12.23,2.09c-4.09,0.6-8.2,1.09-12.32,1.49c-4.12,0.4-8.25,0.7-12.38,0.9c-4.13,0.2-8.27,0.3-12.41,0.3
			s-8.28-0.1-12.41-0.3c-4.13-0.2-8.26-0.5-12.38-0.9c-4.12-0.4-8.23-0.9-12.32-1.49c-4.09-0.6-8.17-1.29-12.23-2.09
			c-4.06-0.79-8.1-1.68-12.11-2.67c-4.02-0.99-8-2.07-11.96-3.25c-3.96-1.18-7.89-2.46-11.79-3.83c-3.9-1.37-7.76-2.83-11.58-4.39
			c-3.82-1.56-7.61-3.2-11.35-4.94c-3.74-1.74-7.44-3.57-11.09-5.48c-3.65-1.92-7.25-3.92-10.8-6.01
			c-3.55-2.09-7.05-4.27-10.49-6.53c-3.44-2.26-6.83-4.6-10.15-7.02c-3.32-2.42-6.59-4.92-9.79-7.5c-3.2-2.58-6.33-5.24-9.4-7.97
			c-3.07-2.73-6.06-5.53-8.99-8.41c-2.93-2.88-5.78-5.82-8.56-8.83c-2.78-3.01-5.48-6.09-8.11-9.24s-5.17-6.35-7.64-9.62
			c-2.47-3.27-4.85-6.59-7.15-9.97c-2.3-3.38-4.51-6.82-6.64-10.3c-2.13-3.49-4.17-7.03-6.12-10.61c-1.95-3.59-3.81-7.22-5.58-10.89
			c-1.77-3.68-3.45-7.39-5.03-11.15c-1.58-3.76-3.07-7.55-4.47-11.38c-1.39-3.83-2.69-7.69-3.89-11.58
			c-1.2-3.89-2.31-7.81-3.31-11.76c-1.01-3.95-1.91-7.91-2.72-11.9c-0.81-3.99-1.51-7.99-2.12-12.02
			c-0.61-4.02-1.11-8.06-1.52-12.11c-0.41-4.05-0.71-8.1-0.91-12.16c-0.2-4.06-0.3-8.13-0.3-12.19s0.1-8.13,0.3-12.19
			c0.2-4.06,0.51-8.12,0.91-12.16s0.91-8.08,1.52-12.11c0.61-4.02,1.31-8.03,2.12-12.02c0.81-3.99,1.71-7.96,2.72-11.9
			c1.01-3.95,2.11-7.86,3.31-11.76c1.2-3.89,2.5-7.75,3.89-11.58c1.39-3.83,2.88-7.62,4.47-11.38c1.58-3.76,3.26-7.47,5.03-11.15
			c1.77-3.68,3.63-7.31,5.58-10.89c1.95-3.59,3.99-7.12,6.12-10.61c2.13-3.49,4.34-6.92,6.64-10.3c2.3-3.38,4.68-6.71,7.15-9.97
			c2.47-3.27,5.01-6.47,7.64-9.62s5.33-6.22,8.11-9.24c2.78-3.01,5.63-5.96,8.56-8.83c2.93-2.88,5.92-5.68,8.99-8.41
			c3.07-2.73,6.2-5.39,9.4-7.97c3.2-2.58,6.46-5.08,9.79-7.5c3.32-2.42,6.71-4.76,10.15-7.02c3.44-2.26,6.94-4.43,10.49-6.53
			c3.55-2.09,7.15-4.09,10.8-6.01c3.65-1.92,7.35-3.75,11.09-5.48c3.74-1.74,7.53-3.39,11.35-4.94s7.69-3.02,11.58-4.39
			c3.9-1.37,7.83-2.65,11.79-3.83c3.96-1.18,7.95-2.26,11.96-3.25c4.02-0.99,8.05-1.88,12.11-2.67c4.06-0.79,8.14-1.49,12.23-2.09
			c4.09-0.6,8.2-1.09,12.32-1.49c4.12-0.4,8.25-0.7,12.38-0.9c4.13-0.2,8.27-0.3,12.41-0.3s8.28,0.1,12.41,0.3
			c4.13,0.2,8.26,0.5,12.38,0.9c4.12,0.4,8.23,0.9,12.32,1.49c4.09,0.6,8.17,1.29,12.23,2.09c4.06,0.79,8.1,1.68,12.11,2.67
			c4.02,0.99,8,2.07,11.96,3.25c3.96,1.18,7.89,2.46,11.79,3.83c3.9,1.37,7.76,2.83,11.58,4.39c3.82,1.56,7.61,3.2,11.35,4.94
			c3.74,1.74,7.44,3.57,11.09,5.48c3.65,1.92,7.25,3.92,10.8,6.01c3.55,2.09,7.05,4.27,10.49,6.53c3.44,2.26,6.83,4.6,10.15,7.02
			c3.32,2.42,6.59,4.92,9.79,7.5c3.2,2.58,6.33,5.24,9.4,7.97c3.07,2.73,6.06,5.53,8.99,8.41c2.93,2.88,5.78,5.82,8.56,8.83
			c2.78,3.01,5.48,6.09,8.11,9.24s5.17,6.35,7.64,9.62c2.47,3.27,4.85,6.59,7.15,9.97c2.3,3.38,4.51,6.82,6.64,10.3
			c2.13,3.49,4.17,7.03,6.12,10.61c1.95,3.59,3.81,7.22,5.58,10.89c1.77,3.68,3.45,7.39,5.03,11.15c1.58,3.76,3.07,7.55,4.47,11.38
			c1.39,3.83,2.69,7.69,3.89,11.58c1.2,3.89,2.31,7.81,3.31,11.76c1.01,3.95,1.91,7.91,2.72,11.9c0.81,3.99,1.51,7.99,2.12,12.02
			c0.61,4.02,1.11,8.06,1.52,12.11c0.41,4.05,0.71,8.1,0.91,12.16C508.76,247.36,508.86,251.43,508.86,255.49L508.86,255.49z"/>
	</defs>
	<clipPath id="SVGID_2_">
		<use xlink:href="#SVGID_1_"  style="overflow:visible;"/>
	</clipPath>
	<path class="st0" d="M494.62,84.2L356.35,313.37c-13.49,22.07-21.08,48.38-21.08,75.54v105.25c0,40.74-32.88,73.84-73.35,73.84
		h-6.74c-40.47,0-73.35-33.1-73.35-73.84v-106.1c0-26.31-6.74-52.62-20.23-74.69L25.02,84.2C-4.49,35.82,30.08-26.15,86.56-26.15
		h0.84c25.29,0,48.9,12.73,61.55,34.8l80.94,134.96c13.49,22.92,46.37,22.92,59.86,0L370.69,8.65c13.49-22.07,37.1-34.8,62.39-34.8
		C489.56-26.15,524.13,35.82,494.62,84.2L494.62,84.2z"/>
</g>
</svg>
