<svg id="Layer_1" data-name="Layer 1" xmlns="http://www.w3.org/2000/svg" xmlns:xlink="http://www.w3.org/1999/xlink" viewBox="0 0 484 112.97"><defs><style>.cls-1{fill:none;}.cls-2{clip-path:url(#clip-path);}.cls-3{fill:#fff;}</style><clipPath id="clip-path" transform="translate(0 6.46)"><path class="cls-1" d="M96.87,48.42q0,1.19-.06,2.37c0,.79-.1,1.58-.17,2.37s-.18,1.58-.3,2.36-.25,1.56-.4,2.34-.33,1.55-.52,2.32-.41,1.53-.64,2.29S94.3,64,94,64.73s-.55,1.48-.86,2.21-.62,1.46-1,2.18-.7,1.42-1.07,2.12-.76,1.39-1.17,2.07-.83,1.34-1.27,2-.9,1.31-1.37,2-1,1.26-1.47,1.87-1,1.21-1.55,1.8-1.08,1.16-1.64,1.72S81.55,83.76,81,84.29s-1.19,1-1.8,1.55-1.24,1-1.87,1.46-1.29.93-2,1.37-1.33.87-2,1.27-1.36.8-2.06,1.17-1.41.73-2.13,1.07-1.44.66-2.17,1-1.47.58-2.22.85-1.5.52-2.26.75-1.52.44-2.29.63-1.54.37-2.32.52-1.55.29-2.34.41-1.57.21-2.36.29-1.58.13-2.37.17-1.58.06-2.38.06-1.58,0-2.37-.06-1.58-.09-2.37-.17-1.58-.18-2.36-.29-1.57-.26-2.34-.41-1.56-.33-2.32-.52-1.54-.4-2.3-.63-1.51-.48-2.25-.75-1.49-.55-2.22-.85-1.46-.63-2.17-1-1.43-.69-2.13-1.07-1.39-.76-2.07-1.17-1.35-.83-2-1.27-1.31-.9-2-1.37-1.26-1-1.87-1.46-1.21-1-1.8-1.55-1.16-1.08-1.72-1.64-1.11-1.13-1.64-1.72S11.5,79.74,11,79.13s-1-1.24-1.46-1.87-.93-1.29-1.37-2-.86-1.32-1.27-2-.8-1.37-1.17-2.07S5,69.83,4.65,69.12s-.66-1.44-1-2.18-.59-1.47-.86-2.21-.51-1.5-.74-2.26S1.64,61,1.45,60.18s-.36-1.54-.52-2.32S.64,56.3.52,55.52.31,54,.23,53.16.1,51.58.06,50.79,0,49.21,0,48.42,0,46.83.06,46s.1-1.58.17-2.37.18-1.57.29-2.36S.78,39.75.93,39s.33-1.55.52-2.32.41-1.53.64-2.29.47-1.51.74-2.26.55-1.48.86-2.21.62-1.46,1-2.17.7-1.43,1.07-2.13.76-1.39,1.17-2.07.83-1.34,1.27-2,.9-1.31,1.37-1.95,1-1.26,1.46-1.87,1-1.21,1.56-1.8,1.08-1.16,1.64-1.72,1.13-1.11,1.72-1.64,1.19-1,1.8-1.55S19,10,19.58,9.53s1.29-.93,2-1.37,1.32-.86,2-1.27,1.37-.8,2.07-1.17S27,5,27.73,4.65s1.44-.66,2.17-1,1.47-.59,2.22-.86,1.5-.52,2.25-.75,1.53-.44,2.3-.63S38.21,1.08,39,.93,40.54.64,41.33.52,42.9.31,43.69.23,45.27.1,46.06.06,47.64,0,48.43,0,50,0,50.81.06s1.58.1,2.37.17,1.58.18,2.36.29,1.57.26,2.34.41,1.55.33,2.32.52,1.54.4,2.29.63,1.52.48,2.26.75,1.49.55,2.22.86,1.46.62,2.17,1,1.43.69,2.13,1.07,1.38.76,2.06,1.17,1.35.83,2,1.27,1.31.9,2,1.37,1.26,1,1.87,1.46,1.21,1,1.8,1.55,1.16,1.08,1.72,1.64,1.11,1.13,1.64,1.72,1.05,1.19,1.55,1.8,1,1.24,1.47,1.87.93,1.29,1.37,1.95.86,1.33,1.27,2,.8,1.37,1.17,2.07.73,1.41,1.07,2.13.66,1.44,1,2.17.59,1.47.86,2.21.51,1.5.74,2.26.44,1.52.64,2.29.36,1.54.52,2.32.29,1.56.4,2.34.22,1.57.3,2.36.13,1.58.17,2.37.06,1.58.06,2.38Z"/></clipPath></defs><title>yakkl-pos-full</title><path d="M96.87,48.42q0,1.19-.06,2.37c0,.79-.1,1.58-.17,2.37s-.18,1.58-.3,2.36-.25,1.56-.4,2.34-.33,1.55-.52,2.32-.41,1.53-.64,2.29S94.3,64,94,64.73s-.55,1.48-.86,2.21-.62,1.46-1,2.18-.7,1.42-1.07,2.12-.76,1.39-1.17,2.07-.83,1.34-1.27,2-.9,1.31-1.37,2-1,1.26-1.47,1.87-1,1.21-1.55,1.8-1.08,1.16-1.64,1.72S81.55,83.76,81,84.29s-1.19,1-1.8,1.55-1.24,1-1.87,1.46-1.29.93-2,1.37-1.33.87-2,1.27-1.36.8-2.06,1.17-1.41.73-2.13,1.07-1.44.66-2.17,1-1.47.58-2.22.85-1.5.52-2.26.75-1.52.44-2.29.63-1.54.37-2.32.52-1.55.29-2.34.41-1.57.21-2.36.29-1.58.13-2.37.17-1.58.06-2.38.06-1.58,0-2.37-.06-1.58-.09-2.37-.17-1.58-.18-2.36-.29-1.57-.26-2.34-.41-1.56-.33-2.32-.52-1.54-.4-2.3-.63-1.51-.48-2.25-.75-1.49-.55-2.22-.85-1.46-.63-2.17-1-1.43-.69-2.13-1.07-1.39-.76-2.07-1.17-1.35-.83-2-1.27-1.31-.9-2-1.37-1.26-1-1.87-1.46-1.21-1-1.8-1.55-1.16-1.08-1.72-1.64-1.11-1.13-1.64-1.72S11.5,79.74,11,79.13s-1-1.24-1.46-1.87-.93-1.29-1.37-2-.86-1.32-1.27-2-.8-1.37-1.17-2.07S5,69.83,4.65,69.12s-.66-1.44-1-2.18-.59-1.47-.86-2.21-.51-1.5-.74-2.26S1.64,61,1.45,60.18s-.36-1.54-.52-2.32S.64,56.3.52,55.52.31,54,.23,53.16.1,51.58.06,50.79,0,49.21,0,48.42,0,46.83.06,46s.1-1.58.17-2.37.18-1.57.29-2.36S.78,39.75.93,39s.33-1.55.52-2.32.41-1.53.64-2.29.47-1.51.74-2.26.55-1.48.86-2.21.62-1.46,1-2.17.7-1.43,1.07-2.13.76-1.39,1.17-2.07.83-1.34,1.27-2,.9-1.31,1.37-1.95,1-1.26,1.46-1.87,1-1.21,1.56-1.8,1.08-1.16,1.64-1.72,1.13-1.11,1.72-1.64,1.19-1,1.8-1.55S19,10,19.58,9.53s1.29-.93,2-1.37,1.32-.86,2-1.27,1.37-.8,2.07-1.17S27,5,27.73,4.65s1.44-.66,2.17-1,1.47-.59,2.22-.86,1.5-.52,2.25-.75,1.53-.44,2.3-.63S38.21,1.08,39,.93,40.54.64,41.33.52,42.9.31,43.69.23,45.27.1,46.06.06,47.64,0,48.43,0,50,0,50.81.06s1.58.1,2.37.17,1.58.18,2.36.29,1.57.26,2.34.41,1.55.33,2.32.52,1.54.4,2.29.63,1.52.48,2.26.75,1.49.55,2.22.86,1.46.62,2.17,1,1.43.69,2.13,1.07,1.38.76,2.06,1.17,1.35.83,2,1.27,1.31.9,2,1.37,1.26,1,1.87,1.46,1.21,1,1.8,1.55,1.16,1.08,1.72,1.64,1.11,1.13,1.64,1.72,1.05,1.19,1.55,1.8,1,1.24,1.47,1.87.93,1.29,1.37,1.95.86,1.33,1.27,2,.8,1.37,1.17,2.07.73,1.41,1.07,2.13.66,1.44,1,2.17.59,1.47.86,2.21.51,1.5.74,2.26.44,1.52.64,2.29.36,1.54.52,2.32.29,1.56.4,2.34.22,1.57.3,2.36.13,1.58.17,2.37.06,1.58.06,2.38Z" transform="translate(0 6.46)"/><path d="M176.08,28.54,163.14,49v18.8H153V49.2l-13-20.66H151.1l6.9,11.6,7-11.6Zm31.35,39.3-2.54-7.27H189.16l-2.51,7.27H176.3l14.47-39.3h12.54l14.47,39.3ZM192.08,52.17H202L197,38l-4.95,14.22Zm54.08,15.67-11.1-15.78h-2.43V67.84H222.44V28.54h10.19v14.7H235l11.5-14.7h12.39L243.81,47.36l15.33,20.48Zm41.35,0-11.1-15.78H274V67.84H263.79V28.54H274v14.7h2.35l11.51-14.7h12.38L285.16,47.36l15.33,20.48Zm27.82-8.93h11.5v8.93H305.14V28.54h10.19V58.91Zm21.16,9.46a5.28,5.28,0,1,1,5.29-5.24,5.32,5.32,0,0,1-5.29,5.24Zm31.05,0c-11.87,0-20.41-8-20.41-20.18S355.67,28,367.54,28c9.39,0,16.72,4.92,19.34,12.92l-9.52,3.34c-1.31-4.39-5.08-7-9.82-7-5.91,0-10.3,4.23-10.3,11s4.39,10.93,10.3,10.93c4.74,0,8.51-2.62,9.82-7l9.52,3.34c-2.62,8-9.95,12.91-19.34,12.91Zm42.61,0c-11.87,0-20.41-8.05-20.41-20.18S398.28,28,410.15,28s20.44,8,20.44,20.22-8.54,20.18-20.44,20.18Zm0-9.25c5.94,0,10.38-4.2,10.38-10.93s-4.44-11-10.38-11-10.3,4.23-10.3,11,4.39,10.93,10.3,10.93ZM484,67.84H473.81l-2.57-27.7-8.32,27.7h-6.74L447.86,40l-2.59,27.84H435l3.45-39.3h14.89l6.16,20.08,6.23-20.08H480.6l3.4,39.3Z" transform="translate(0 6.46)"/><g class="cls-2"><path class="cls-3" d="M94.14,14.52,67.67,58.1a27.43,27.43,0,0,0-4,14.36v20a14.05,14.05,0,0,1-14.05,14H48.29a14,14,0,0,1-14-14V72.3a27.24,27.24,0,0,0-3.88-14.2L4.22,14.52A13.77,13.77,0,0,1,16-6.46h.16A13.49,13.49,0,0,1,28,.16l15.5,25.66a6.66,6.66,0,0,0,11.46,0L70.41.16a14,14,0,0,1,12-6.62,13.77,13.77,0,0,1,11.78,21Z" transform="translate(0 6.46)"/></g></svg>