<?xml version="1.0" encoding="utf-8"?>
<!-- Generator: Adobe Illustrator 23.0.4, SVG Export Plug-In . SVG Version: 6.00 Build 0)  -->
<svg version="1.1" id="Layer_1" xmlns="http://www.w3.org/2000/svg" xmlns:xlink="http://www.w3.org/1999/xlink" x="0px" y="0px"
	 viewBox="0 0 520 520" style="enable-background:new 0 0 520 520;" xml:space="preserve">
<style type="text/css">
	.st0{clip-path:url(#SVGID_2_);fill:#FFFFFF;}
</style>
<g>
	<path d="M514.15,258.48c0,4.19-0.1,8.38-0.3,12.56s-0.52,8.37-0.92,12.53c-0.42,4.17-0.92,8.32-1.54,12.48
		c-0.62,4.14-1.33,8.27-2.15,12.38c-0.82,4.11-1.73,8.2-2.75,12.26c-1.02,4.07-2.14,8.1-3.35,12.12c-1.21,4.01-2.53,7.98-3.94,11.93
		c-1.41,3.95-2.92,7.85-4.52,11.72c-1.6,3.87-3.3,7.7-5.09,11.49c-1.79,3.79-3.67,7.53-5.65,11.22c-1.97,3.7-4.04,7.34-6.19,10.93
		c-2.16,3.6-4.39,7.13-6.72,10.61c-2.33,3.48-4.74,6.91-7.24,10.27c-2.5,3.37-5.07,6.67-7.73,9.91c-2.66,3.25-5.4,6.41-8.21,9.52
		c-2.81,3.1-5.7,6.14-8.66,9.1c-2.97,2.97-5.99,5.85-9.1,8.66c-3.11,2.81-6.28,5.55-9.51,8.21c-3.24,2.66-6.54,5.23-9.91,7.73
		c-3.36,2.49-6.79,4.9-10.27,7.23c-3.48,2.33-7.02,4.56-10.62,6.73c-3.59,2.15-7.24,4.21-10.93,6.19
		c-3.69,1.98-7.44,3.86-11.23,5.65c-3.79,1.79-7.62,3.49-11.49,5.09c-3.87,1.61-7.78,3.11-11.72,4.52
		c-3.95,1.41-7.93,2.73-11.93,3.95c-4.01,1.22-8.05,2.33-12.11,3.35c-4.07,1.02-8.15,1.94-12.26,2.75
		c-4.11,0.81-8.24,1.54-12.38,2.15c-4.14,0.62-8.3,1.12-12.47,1.54c-4.17,0.41-8.35,0.72-12.53,0.93
		c-4.18,0.21-8.37,0.31-12.56,0.31c-4.19,0-8.38-0.1-12.56-0.31s-8.36-0.52-12.53-0.93c-4.17-0.41-8.33-0.93-12.47-1.54
		c-4.14-0.62-8.27-1.33-12.38-2.15c-4.11-0.81-8.2-1.73-12.26-2.75c-4.07-1.02-8.1-2.13-12.11-3.35c-4.01-1.22-7.99-2.53-11.93-3.95
		s-7.85-2.92-11.72-4.52c-3.87-1.61-7.7-3.3-11.49-5.09c-3.79-1.79-7.53-3.68-11.23-5.65c-3.69-1.98-7.34-4.04-10.93-6.19
		c-3.59-2.15-7.14-4.4-10.62-6.73c-3.48-2.33-6.91-4.74-10.27-7.23c-3.36-2.49-6.67-5.07-9.91-7.73c-3.24-2.66-6.41-5.4-9.51-8.21
		c-3.11-2.81-6.13-5.7-9.1-8.66c-2.97-2.97-5.85-6-8.66-9.1c-2.81-3.1-5.55-6.27-8.21-9.52c-2.66-3.25-5.23-6.54-7.73-9.91
		c-2.5-3.37-4.91-6.79-7.24-10.27c-2.33-3.48-4.57-7.03-6.72-10.61c-2.16-3.6-4.22-7.24-6.19-10.93c-1.97-3.7-3.86-7.44-5.65-11.22
		c-1.79-3.79-3.49-7.61-5.09-11.49c-1.6-3.87-3.11-7.78-4.52-11.72c-1.41-3.95-2.72-7.92-3.94-11.93
		c-1.21-4.01-2.34-8.05-3.35-12.12c-1.02-4.07-1.93-8.15-2.75-12.26c-0.82-4.11-1.53-8.23-2.15-12.38
		c-0.62-4.14-1.12-8.3-1.54-12.48s-0.72-8.34-0.92-12.53s-0.3-8.38-0.3-12.56c0-4.18,0.1-8.38,0.3-12.56
		c0.2-4.18,0.52-8.37,0.92-12.53s0.92-8.32,1.54-12.48c0.62-4.14,1.33-8.27,2.15-12.38c0.82-4.11,1.73-8.2,2.75-12.26
		c1.02-4.07,2.14-8.1,3.35-12.12c1.21-4.01,2.53-7.98,3.94-11.93s2.92-7.85,4.52-11.72c1.6-3.87,3.3-7.7,5.09-11.49
		s3.67-7.53,5.65-11.22c1.97-3.7,4.04-7.34,6.19-10.93c2.16-3.6,4.39-7.13,6.72-10.61c2.33-3.48,4.74-6.91,7.24-10.27
		c2.5-3.37,5.07-6.67,7.73-9.91c2.66-3.25,5.4-6.41,8.21-9.52c2.81-3.1,5.7-6.14,8.66-9.1c2.97-2.97,5.99-5.85,9.1-8.66
		c3.11-2.81,6.28-5.55,9.51-8.21c3.24-2.66,6.54-5.23,9.91-7.73c3.36-2.49,6.79-4.9,10.27-7.23c3.48-2.33,7.02-4.56,10.62-6.73
		c3.59-2.15,7.24-4.21,10.93-6.19c3.69-1.98,7.44-3.86,11.23-5.65c3.79-1.79,7.62-3.49,11.49-5.09c3.87-1.6,7.78-3.11,11.72-4.52
		c3.95-1.41,7.93-2.73,11.93-3.95c4.01-1.22,8.05-2.33,12.11-3.35c4.07-1.02,8.15-1.94,12.26-2.75c4.11-0.81,8.24-1.54,12.38-2.15
		s8.3-1.12,12.47-1.54c4.17-0.41,8.35-0.72,12.53-0.93c4.18-0.21,8.37-0.31,12.56-0.31c4.19,0,8.38,0.1,12.56,0.31
		c4.18,0.21,8.36,0.52,12.53,0.93c4.17,0.41,8.33,0.93,12.47,1.54c4.14,0.62,8.27,1.33,12.38,2.15c4.11,0.81,8.2,1.73,12.26,2.75
		c4.07,1.02,8.1,2.13,12.11,3.35c4.01,1.22,7.99,2.53,11.93,3.95c3.95,1.41,7.85,2.92,11.72,4.52s7.7,3.3,11.49,5.09
		c3.79,1.79,7.53,3.68,11.23,5.65c3.69,1.98,7.34,4.04,10.93,6.19c3.59,2.15,7.14,4.4,10.62,6.73c3.48,2.33,6.91,4.74,10.27,7.23
		s6.67,5.07,9.91,7.73c3.24,2.66,6.41,5.4,9.51,8.21c3.11,2.81,6.13,5.7,9.1,8.66s5.85,6,8.66,9.1s5.55,6.27,8.21,9.52
		s5.23,6.54,7.73,9.91c2.5,3.37,4.91,6.79,7.24,10.27c2.33,3.48,4.57,7.03,6.72,10.61c2.16,3.6,4.22,7.24,6.19,10.93
		c1.97,3.7,3.86,7.44,5.65,11.22c1.79,3.79,3.49,7.61,5.09,11.49c1.6,3.87,3.11,7.78,4.52,11.72c1.41,3.95,2.72,7.92,3.94,11.93
		c1.21,4.01,2.34,8.05,3.35,12.12c1.02,4.07,1.93,8.15,2.75,12.26c0.82,4.11,1.53,8.23,2.15,12.38c0.62,4.14,1.12,8.3,1.54,12.48
		c0.42,4.17,0.72,8.34,0.92,12.53C514.05,250.11,514.15,254.3,514.15,258.48L514.15,258.48z"/>
	<g>
		<g>
			<defs>
				<path id="SVGID_1_" d="M514.15,258.48c0,4.19-0.1,8.38-0.3,12.56s-0.52,8.37-0.92,12.53c-0.42,4.17-0.92,8.32-1.54,12.48
					c-0.62,4.14-1.33,8.27-2.15,12.38c-0.82,4.11-1.73,8.2-2.75,12.26c-1.02,4.07-2.14,8.1-3.35,12.12
					c-1.21,4.01-2.53,7.98-3.94,11.93c-1.41,3.95-2.92,7.85-4.52,11.72c-1.6,3.87-3.3,7.7-5.09,11.49
					c-1.79,3.79-3.67,7.53-5.65,11.22c-1.97,3.7-4.04,7.34-6.19,10.93c-2.16,3.6-4.39,7.13-6.72,10.61
					c-2.33,3.48-4.74,6.91-7.24,10.27c-2.5,3.37-5.07,6.67-7.73,9.91c-2.66,3.25-5.4,6.41-8.21,9.52c-2.81,3.1-5.7,6.14-8.66,9.1
					c-2.97,2.97-5.99,5.85-9.1,8.66c-3.11,2.81-6.28,5.55-9.51,8.21c-3.24,2.66-6.54,5.23-9.91,7.73c-3.36,2.49-6.79,4.9-10.27,7.23
					c-3.48,2.33-7.02,4.56-10.62,6.73c-3.59,2.15-7.24,4.21-10.93,6.19c-3.69,1.98-7.44,3.86-11.23,5.65
					c-3.79,1.79-7.62,3.49-11.49,5.09c-3.87,1.61-7.78,3.11-11.72,4.52c-3.95,1.41-7.93,2.73-11.93,3.95
					c-4.01,1.22-8.05,2.33-12.11,3.35c-4.07,1.02-8.15,1.94-12.26,2.75c-4.11,0.81-8.24,1.54-12.38,2.15
					c-4.14,0.62-8.3,1.12-12.47,1.54c-4.17,0.41-8.35,0.72-12.53,0.93c-4.18,0.21-8.37,0.31-12.56,0.31c-4.19,0-8.38-0.1-12.56-0.31
					s-8.36-0.52-12.53-0.93c-4.17-0.41-8.33-0.93-12.47-1.54c-4.14-0.62-8.27-1.33-12.38-2.15c-4.11-0.81-8.2-1.73-12.26-2.75
					c-4.07-1.02-8.1-2.13-12.11-3.35c-4.01-1.22-7.99-2.53-11.93-3.95s-7.85-2.92-11.72-4.52c-3.87-1.61-7.7-3.3-11.49-5.09
					c-3.79-1.79-7.53-3.68-11.23-5.65c-3.69-1.98-7.34-4.04-10.93-6.19c-3.59-2.15-7.14-4.4-10.62-6.73
					c-3.48-2.33-6.91-4.74-10.27-7.23c-3.36-2.49-6.67-5.07-9.91-7.73c-3.24-2.66-6.41-5.4-9.51-8.21c-3.11-2.81-6.13-5.7-9.1-8.66
					c-2.97-2.97-5.85-6-8.66-9.1c-2.81-3.1-5.55-6.27-8.21-9.52c-2.66-3.25-5.23-6.54-7.73-9.91c-2.5-3.37-4.91-6.79-7.24-10.27
					c-2.33-3.48-4.57-7.03-6.72-10.61c-2.16-3.6-4.22-7.24-6.19-10.93c-1.97-3.7-3.86-7.44-5.65-11.22
					c-1.79-3.79-3.49-7.61-5.09-11.49c-1.6-3.87-3.11-7.78-4.52-11.72c-1.41-3.95-2.72-7.92-3.94-11.93
					c-1.21-4.01-2.34-8.05-3.35-12.12c-1.02-4.07-1.93-8.15-2.75-12.26c-0.82-4.11-1.53-8.23-2.15-12.38
					c-0.62-4.14-1.12-8.3-1.54-12.48s-0.72-8.34-0.92-12.53s-0.3-8.38-0.3-12.56c0-4.18,0.1-8.38,0.3-12.56
					c0.2-4.18,0.52-8.37,0.92-12.53s0.92-8.32,1.54-12.48c0.62-4.14,1.33-8.27,2.15-12.38c0.82-4.11,1.73-8.2,2.75-12.26
					c1.02-4.07,2.14-8.1,3.35-12.12c1.21-4.01,2.53-7.98,3.94-11.93s2.92-7.85,4.52-11.72c1.6-3.87,3.3-7.7,5.09-11.49
					s3.67-7.53,5.65-11.22c1.97-3.7,4.04-7.34,6.19-10.93c2.16-3.6,4.39-7.13,6.72-10.61c2.33-3.48,4.74-6.91,7.24-10.27
					c2.5-3.37,5.07-6.67,7.73-9.91c2.66-3.25,5.4-6.41,8.21-9.52c2.81-3.1,5.7-6.14,8.66-9.1c2.97-2.97,5.99-5.85,9.1-8.66
					c3.11-2.81,6.28-5.55,9.51-8.21c3.24-2.66,6.54-5.23,9.91-7.73c3.36-2.49,6.79-4.9,10.27-7.23c3.48-2.33,7.02-4.56,10.62-6.73
					c3.59-2.15,7.24-4.21,10.93-6.19c3.69-1.98,7.44-3.86,11.23-5.65c3.79-1.79,7.62-3.49,11.49-5.09c3.87-1.6,7.78-3.11,11.72-4.52
					c3.95-1.41,7.93-2.73,11.93-3.95c4.01-1.22,8.05-2.33,12.11-3.35c4.07-1.02,8.15-1.94,12.26-2.75
					c4.11-0.81,8.24-1.54,12.38-2.15s8.3-1.12,12.47-1.54c4.17-0.41,8.35-0.72,12.53-0.93c4.18-0.21,8.37-0.31,12.56-0.31
					c4.19,0,8.38,0.1,12.56,0.31c4.18,0.21,8.36,0.52,12.53,0.93c4.17,0.41,8.33,0.93,12.47,1.54c4.14,0.62,8.27,1.33,12.38,2.15
					c4.11,0.81,8.2,1.73,12.26,2.75c4.07,1.02,8.1,2.13,12.11,3.35c4.01,1.22,7.99,2.53,11.93,3.95c3.95,1.41,7.85,2.92,11.72,4.52
					s7.7,3.3,11.49,5.09c3.79,1.79,7.53,3.68,11.23,5.65c3.69,1.98,7.34,4.04,10.93,6.19c3.59,2.15,7.14,4.4,10.62,6.73
					c3.48,2.33,6.91,4.74,10.27,7.23s6.67,5.07,9.91,7.73c3.24,2.66,6.41,5.4,9.51,8.21c3.11,2.81,6.13,5.7,9.1,8.66
					s5.85,6,8.66,9.1s5.55,6.27,8.21,9.52s5.23,6.54,7.73,9.91c2.5,3.37,4.91,6.79,7.24,10.27c2.33,3.48,4.57,7.03,6.72,10.61
					c2.16,3.6,4.22,7.24,6.19,10.93c1.97,3.7,3.86,7.44,5.65,11.22c1.79,3.79,3.49,7.61,5.09,11.49c1.6,3.87,3.11,7.78,4.52,11.72
					c1.41,3.95,2.72,7.92,3.94,11.93c1.21,4.01,2.34,8.05,3.35,12.12c1.02,4.07,1.93,8.15,2.75,12.26
					c0.82,4.11,1.53,8.23,2.15,12.38c0.62,4.14,1.12,8.3,1.54,12.48c0.42,4.17,0.72,8.34,0.92,12.53
					C514.05,250.11,514.15,254.3,514.15,258.48L514.15,258.48z"/>
			</defs>
			<clipPath id="SVGID_2_">
				<use xlink:href="#SVGID_1_"  style="overflow:visible;"/>
			</clipPath>
			<path class="st0" d="M499.74,82.02l-139.96,236.1c-13.65,22.74-21.34,49.84-21.34,77.82v108.43c0,41.97-33.28,76.07-74.25,76.07
				h-6.82c-40.96,0-74.25-34.1-74.25-76.07V395.06c0-27.11-6.82-54.21-20.48-76.95L24.4,82.02C-5.47,32.18,29.52-31.67,86.69-31.67
				h0.85c25.6,0,49.5,13.11,62.3,35.85l81.93,139.04c13.65,23.61,46.94,23.61,60.59,0L374.29,4.18
				c13.65-22.74,37.55-35.85,63.15-35.85C494.61-31.67,529.61,32.18,499.74,82.02L499.74,82.02z"/>
		</g>
	</g>
</g>
</svg>
