<svg id="Layer_1" data-name="Layer 1" xmlns="http://www.w3.org/2000/svg" xmlns:xlink="http://www.w3.org/1999/xlink" viewBox="0 0 102 121.94"><defs><style>.cls-1{fill:none;}.cls-2{clip-path:url(#clip-path);}.cls-3{fill:#fff;}</style><clipPath id="clip-path" transform="translate(-207.15 -200.68)"><path class="cls-1" d="M309.15,258.48c0,.84,0,1.67-.06,2.51s-.1,1.66-.18,2.49-.19,1.66-.31,2.49-.27,1.65-.43,2.46-.34,1.64-.55,2.45-.42,1.61-.66,2.41-.51,1.59-.79,2.38-.58,1.56-.9,2.33-.66,1.54-1,2.29-.73,1.5-1.12,2.24-.8,1.46-1.23,2.17-.88,1.42-1.34,2.12-.95,1.38-1.45,2-1,1.33-1.54,2-1.07,1.28-1.63,1.9-1.14,1.22-1.73,1.81-1.19,1.16-1.81,1.72-1.25,1.11-1.9,1.64-1.3,1-2,1.54-1.35,1-2,1.44-1.4.91-2.11,1.34-1.44.84-2.18,1.23-1.48.77-2.24,1.13-1.51.69-2.28,1-1.56.62-2.34.9-1.58.55-2.38.79-1.6.46-2.41.67-1.62.38-2.44.54-1.64.31-2.47.43-1.65.23-2.48.31-1.67.14-2.5.18-1.67.06-2.5.06-1.67,0-2.5-.06-1.67-.1-2.5-.18-1.66-.19-2.48-.31-1.65-.26-2.47-.43-1.63-.34-2.44-.54-1.62-.43-2.41-.67-1.6-.51-2.38-.79-1.57-.58-2.34-.9-1.53-.66-2.29-1-1.5-.73-2.23-1.13-1.46-.8-2.18-1.23-1.42-.88-2.12-1.34-1.37-.94-2-1.44-1.33-1-2-1.54-1.27-1.08-1.89-1.64-1.22-1.13-1.81-1.72-1.17-1.2-1.73-1.81-1.11-1.25-1.64-1.9-1-1.3-1.54-2-1-1.35-1.44-2-.91-1.4-1.34-2.12-.84-1.44-1.23-2.17-.77-1.49-1.13-2.24-.69-1.52-1-2.29-.62-1.55-.9-2.33-.54-1.58-.79-2.38-.46-1.6-.66-2.41-.39-1.63-.55-2.45-.31-1.64-.43-2.46-.22-1.66-.31-2.49-.14-1.66-.18-2.49-.06-1.67-.06-2.51,0-1.66.06-2.5.1-1.66.18-2.49.19-1.66.31-2.49.26-1.65.43-2.47.34-1.63.55-2.44.42-1.61.66-2.41.51-1.59.79-2.38.58-1.56.9-2.33.66-1.54,1-2.29.74-1.5,1.13-2.24.8-1.46,1.23-2.17.88-1.42,1.34-2.12.95-1.38,1.44-2,1-1.33,1.54-2,1.08-1.28,1.64-1.9,1.13-1.22,1.73-1.81,1.19-1.16,1.81-1.72,1.25-1.11,1.89-1.64,1.31-1,2-1.54,1.35-1,2-1.44,1.4-.91,2.12-1.34,1.44-.84,2.18-1.23,1.48-.77,2.23-1.13,1.52-.69,2.29-1,1.55-.62,2.34-.9,1.58-.55,2.38-.79,1.6-.46,2.41-.67,1.62-.38,2.44-.54,1.64-.31,2.47-.43,1.65-.23,2.48-.31,1.66-.14,2.5-.18,1.66-.07,2.5-.07,1.67,0,2.5.07,1.67.1,2.5.18,1.66.19,2.48.31,1.65.26,2.47.43,1.63.34,2.44.54,1.61.43,2.41.67,1.59.51,2.38.79,1.56.58,2.34.9,1.53.65,2.28,1,1.5.73,2.24,1.13,1.46.8,2.18,1.23,1.42.88,2.11,1.34,1.38.94,2,1.44,1.33,1,2,1.54,1.28,1.08,1.9,1.64,1.22,1.13,1.81,1.72,1.17,1.2,1.73,1.81,1.1,1.25,1.63,1.9,1.05,1.3,1.54,2,1,1.35,1.45,2,.91,1.4,1.34,2.12.84,1.44,1.23,2.17.77,1.48,1.12,2.24.7,1.51,1,2.29.62,1.55.9,2.33.54,1.58.79,2.38.46,1.6.66,2.41.39,1.63.55,2.44.31,1.64.43,2.47.22,1.66.31,2.49.14,1.66.18,2.49.06,1.67.06,2.5Z"/></clipPath></defs><title>yakkl-pos-symbol</title><path d="M309.15,258.48c0,.84,0,1.67-.06,2.51s-.1,1.66-.18,2.49-.19,1.66-.31,2.49-.27,1.65-.43,2.46-.34,1.64-.55,2.45-.42,1.61-.66,2.41-.51,1.59-.79,2.38-.58,1.56-.9,2.33-.66,1.54-1,2.29-.73,1.5-1.12,2.24-.8,1.46-1.23,2.17-.88,1.42-1.34,2.12-.95,1.38-1.45,2-1,1.33-1.54,2-1.07,1.28-1.63,1.9-1.14,1.22-1.73,1.81-1.19,1.16-1.81,1.72-1.25,1.11-1.9,1.64-1.3,1-2,1.54-1.35,1-2,1.44-1.4.91-2.11,1.34-1.44.84-2.18,1.23-1.48.77-2.24,1.13-1.51.69-2.28,1-1.56.62-2.34.9-1.58.55-2.38.79-1.6.46-2.41.67-1.62.38-2.44.54-1.64.31-2.47.43-1.65.23-2.48.31-1.67.14-2.5.18-1.67.06-2.5.06-1.67,0-2.5-.06-1.67-.1-2.5-.18-1.66-.19-2.48-.31-1.65-.26-2.47-.43-1.63-.34-2.44-.54-1.62-.43-2.41-.67-1.6-.51-2.38-.79-1.57-.58-2.34-.9-1.53-.66-2.29-1-1.5-.73-2.23-1.13-1.46-.8-2.18-1.23-1.42-.88-2.12-1.34-1.37-.94-2-1.44-1.33-1-2-1.54-1.27-1.08-1.89-1.64-1.22-1.13-1.81-1.72-1.17-1.2-1.73-1.81-1.11-1.25-1.64-1.9-1-1.3-1.54-2-1-1.35-1.44-2-.91-1.4-1.34-2.12-.84-1.44-1.23-2.17-.77-1.49-1.13-2.24-.69-1.52-1-2.29-.62-1.55-.9-2.33-.54-1.58-.79-2.38-.46-1.6-.66-2.41-.39-1.63-.55-2.45-.31-1.64-.43-2.46-.22-1.66-.31-2.49-.14-1.66-.18-2.49-.06-1.67-.06-2.51,0-1.66.06-2.5.1-1.66.18-2.49.19-1.66.31-2.49.26-1.65.43-2.47.34-1.63.55-2.44.42-1.61.66-2.41.51-1.59.79-2.38.58-1.56.9-2.33.66-1.54,1-2.29.74-1.5,1.13-2.24.8-1.46,1.23-2.17.88-1.42,1.34-2.12.95-1.38,1.44-2,1-1.33,1.54-2,1.08-1.28,1.64-1.9,1.13-1.22,1.73-1.81,1.19-1.16,1.81-1.72,1.25-1.11,1.89-1.64,1.31-1,2-1.54,1.35-1,2-1.44,1.4-.91,2.12-1.34,1.44-.84,2.18-1.23,1.48-.77,2.23-1.13,1.52-.69,2.29-1,1.55-.62,2.34-.9,1.58-.55,2.38-.79,1.6-.46,2.41-.67,1.62-.38,2.44-.54,1.64-.31,2.47-.43,1.65-.23,2.48-.31,1.66-.14,2.5-.18,1.66-.07,2.5-.07,1.67,0,2.5.07,1.67.1,2.5.18,1.66.19,2.48.31,1.65.26,2.47.43,1.63.34,2.44.54,1.61.43,2.41.67,1.59.51,2.38.79,1.56.58,2.34.9,1.53.65,2.28,1,1.5.73,2.24,1.13,1.46.8,2.18,1.23,1.42.88,2.11,1.34,1.38.94,2,1.44,1.33,1,2,1.54,1.28,1.08,1.9,1.64,1.22,1.13,1.81,1.72,1.17,1.2,1.73,1.81,1.1,1.25,1.63,1.9,1.05,1.3,1.54,2,1,1.35,1.45,2,.91,1.4,1.34,2.12.84,1.44,1.23,2.17.77,1.48,1.12,2.24.7,1.51,1,2.29.62,1.55.9,2.33.54,1.58.79,2.38.46,1.6.66,2.41.39,1.63.55,2.44.31,1.64.43,2.47.22,1.66.31,2.49.14,1.66.18,2.49.06,1.67.06,2.5Z" transform="translate(-207.15 -200.68)"/><g class="cls-2"><path class="cls-3" d="M306.28,223.33l-27.88,47a30.17,30.17,0,0,0-4.26,15.51v21.6a15,15,0,0,1-14.79,15.15H258a15,15,0,0,1-14.79-15.15V285.69a29.94,29.94,0,0,0-4.08-15.33l-27.54-47c-6-9.93,1-22.65,12.41-22.65h.17a14.12,14.12,0,0,1,12.41,7.14l16.32,27.7a6.92,6.92,0,0,0,12.07,0l16.33-27.7a14.59,14.59,0,0,1,12.58-7.14c11.39,0,18.36,12.72,12.41,22.65Z" transform="translate(-207.15 -200.68)"/></g></svg>