<svg id="Layer_1" data-name="Layer 1" xmlns="http://www.w3.org/2000/svg" xmlns:xlink="http://www.w3.org/1999/xlink" viewBox="0 0 840 1004.24"><defs><style>.cls-1{fill:none;}.cls-2{clip-path:url(#clip-path);}.cls-3{fill:#fff;}</style><clipPath id="clip-path" transform="translate(0 56.03)"><path class="cls-1" d="M840,420q0,10.32-.5,20.6c-.33,6.87-.85,13.73-1.51,20.56s-1.51,13.65-2.52,20.47-2.18,13.57-3.52,20.31-2.84,13.46-4.52,20.11-3.51,13.29-5.5,19.88-4.15,13.1-6.46,19.57-4.78,12.88-7.42,19.24-5.42,12.62-8.35,18.84-6,12.36-9.27,18.41-6.63,12-10.16,17.93-7.21,11.7-11,17.41-7.77,11.34-11.87,16.85-8.32,10.94-12.69,16.26-8.85,10.52-13.47,15.62S721.86,712.14,717,717s-9.83,9.6-14.93,14.21-10.29,9.11-15.61,13.47-10.72,8.59-16.25,12.68-11.15,8-16.86,11.86-11.52,7.49-17.42,11-11.87,6.91-17.93,10.16-12.21,6.34-18.42,9.26-12.51,5.73-18.85,8.35-12.77,5.11-19.23,7.42-13,4.48-19.58,6.47-13.2,3.82-19.86,5.5-13.37,3.18-20.11,4.51-13.52,2.52-20.31,3.53S468,837.3,461.17,838s-13.7,1.18-20.56,1.52S426.88,840,420,840s-13.75-.17-20.61-.51-13.72-.84-20.56-1.52-13.67-1.52-20.46-2.52-13.57-2.18-20.31-3.53-13.45-2.84-20.11-4.51-13.28-3.5-19.86-5.5-13.1-4.15-19.58-6.47-12.89-4.78-19.23-7.42-12.64-5.41-18.85-8.35-12.35-6-18.42-9.26-12-6.63-17.93-10.16-11.71-7.22-17.42-11-11.34-7.77-16.86-11.86-10.94-8.32-16.25-12.68S143,735.82,137.94,731.2,127.87,721.85,123,717s-9.6-9.84-14.22-14.93-9.1-10.29-13.47-15.62-8.58-10.73-12.69-16.26-8-11.13-11.87-16.85-7.49-11.52-11-17.41S52.81,624,49.57,618s-6.33-12.2-9.27-18.41S34.58,587.09,32,580.74,26.85,568,24.53,561.5s-4.47-13-6.46-19.57-3.84-13.2-5.5-19.88S9.4,508.69,8.05,501.94s-2.5-13.5-3.52-20.31S2.69,468,2,461.16.83,447.47.5,440.6,0,426.86,0,420s.17-13.74.5-20.6S1.35,385.67,2,378.84s1.51-13.65,2.52-20.46,2.18-13.58,3.52-20.32S10.89,324.6,12.57,318s3.51-13.29,5.5-19.88,4.15-13.1,6.46-19.57,4.78-12.88,7.42-19.24,5.42-12.62,8.35-18.84,6-12.36,9.27-18.41,6.63-12,10.16-17.93,7.21-11.7,11-17.41,7.77-11.34,11.87-16.85S91,158.88,95.32,153.56s8.85-10.52,13.47-15.62S118.14,127.86,123,123s9.83-9.6,14.93-14.21,10.29-9.11,15.61-13.47,10.72-8.59,16.25-12.68,11.15-8,16.86-11.86,11.52-7.49,17.42-11S216,52.84,222,49.59s12.21-6.34,18.42-9.26S252.94,34.6,259.28,32s12.77-5.11,19.23-7.42,13-4.48,19.58-6.47,13.2-3.82,19.86-5.5,13.37-3.18,20.11-4.51,13.52-2.52,20.31-3.53S372,2.7,378.83,2,392.53.85,399.39.51,413.12,0,420,0s13.75.17,20.61.51,13.72.84,20.56,1.52,13.67,1.52,20.46,2.52,13.57,2.18,20.31,3.53,13.45,2.84,20.11,4.51,13.28,3.5,19.86,5.5,13.1,4.15,19.58,6.47,12.89,4.78,19.23,7.42,12.64,5.41,18.85,8.35,12.35,6,18.42,9.26,12,6.63,17.93,10.16,11.71,7.22,17.42,11,11.34,7.77,16.86,11.86S681.14,91,686.45,95.33s10.52,8.85,15.61,13.47S712.13,118.15,717,123s9.6,9.84,14.22,14.93,9.1,10.29,13.47,15.62,8.58,10.73,12.69,16.26,8,11.13,11.87,16.85,7.49,11.52,11,17.41S787.19,216,790.43,222s6.33,12.2,9.27,18.41,5.72,12.49,8.35,18.84,5.1,12.76,7.42,19.24,4.47,13,6.46,19.57,3.84,13.2,5.5,19.88,3.17,13.36,4.52,20.11,2.5,13.5,3.52,20.32S837.31,372,838,378.84s1.18,13.69,1.51,20.56.5,13.74.5,20.6Z"/></clipPath></defs><title>safari-pinned-tab</title><path d="M840,420q0,10.32-.5,20.6c-.33,6.87-.85,13.73-1.51,20.56s-1.51,13.65-2.52,20.47-2.18,13.57-3.52,20.31-2.84,13.46-4.52,20.11-3.51,13.29-5.5,19.88-4.15,13.1-6.46,19.57-4.78,12.88-7.42,19.24-5.42,12.62-8.35,18.84-6,12.36-9.27,18.41-6.63,12-10.16,17.93-7.21,11.7-11,17.41-7.77,11.34-11.87,16.85-8.32,10.94-12.69,16.26-8.85,10.52-13.47,15.62S721.86,712.14,717,717s-9.83,9.6-14.93,14.21-10.29,9.11-15.61,13.47-10.72,8.59-16.25,12.68-11.15,8-16.86,11.86-11.52,7.49-17.42,11-11.87,6.91-17.93,10.16-12.21,6.34-18.42,9.26-12.51,5.73-18.85,8.35-12.77,5.11-19.23,7.42-13,4.48-19.58,6.47-13.2,3.82-19.86,5.5-13.37,3.18-20.11,4.51-13.52,2.52-20.31,3.53S468,837.3,461.17,838s-13.7,1.18-20.56,1.52S426.88,840,420,840s-13.75-.17-20.61-.51-13.72-.84-20.56-1.52-13.67-1.52-20.46-2.52-13.57-2.18-20.31-3.53-13.45-2.84-20.11-4.51-13.28-3.5-19.86-5.5-13.1-4.15-19.58-6.47-12.89-4.78-19.23-7.42-12.64-5.41-18.85-8.35-12.35-6-18.42-9.26-12-6.63-17.93-10.16-11.71-7.22-17.42-11-11.34-7.77-16.86-11.86-10.94-8.32-16.25-12.68S143,735.82,137.94,731.2,127.87,721.85,123,717s-9.6-9.84-14.22-14.93-9.1-10.29-13.47-15.62-8.58-10.73-12.69-16.26-8-11.13-11.87-16.85-7.49-11.52-11-17.41S52.81,624,49.57,618s-6.33-12.2-9.27-18.41S34.58,587.09,32,580.74,26.85,568,24.53,561.5s-4.47-13-6.46-19.57-3.84-13.2-5.5-19.88S9.4,508.69,8.05,501.94s-2.5-13.5-3.52-20.31S2.69,468,2,461.16.83,447.47.5,440.6,0,426.86,0,420s.17-13.74.5-20.6S1.35,385.67,2,378.84s1.51-13.65,2.52-20.46,2.18-13.58,3.52-20.32S10.89,324.6,12.57,318s3.51-13.29,5.5-19.88,4.15-13.1,6.46-19.57,4.78-12.88,7.42-19.24,5.42-12.62,8.35-18.84,6-12.36,9.27-18.41,6.63-12,10.16-17.93,7.21-11.7,11-17.41,7.77-11.34,11.87-16.85S91,158.88,95.32,153.56s8.85-10.52,13.47-15.62S118.14,127.86,123,123s9.83-9.6,14.93-14.21,10.29-9.11,15.61-13.47,10.72-8.59,16.25-12.68,11.15-8,16.86-11.86,11.52-7.49,17.42-11S216,52.84,222,49.59s12.21-6.34,18.42-9.26S252.94,34.6,259.28,32s12.77-5.11,19.23-7.42,13-4.48,19.58-6.47,13.2-3.82,19.86-5.5,13.37-3.18,20.11-4.51,13.52-2.52,20.31-3.53S372,2.7,378.83,2,392.53.85,399.39.51,413.12,0,420,0s13.75.17,20.61.51,13.72.84,20.56,1.52,13.67,1.52,20.46,2.52,13.57,2.18,20.31,3.53,13.45,2.84,20.11,4.51,13.28,3.5,19.86,5.5,13.1,4.15,19.58,6.47,12.89,4.78,19.23,7.42,12.64,5.41,18.85,8.35,12.35,6,18.42,9.26,12,6.63,17.93,10.16,11.71,7.22,17.42,11,11.34,7.77,16.86,11.86S681.14,91,686.45,95.33s10.52,8.85,15.61,13.47S712.13,118.15,717,123s9.6,9.84,14.22,14.93,9.1,10.29,13.47,15.62,8.58,10.73,12.69,16.26,8,11.13,11.87,16.85,7.49,11.52,11,17.41S787.19,216,790.43,222s6.33,12.2,9.27,18.41,5.72,12.49,8.35,18.84,5.1,12.76,7.42,19.24,4.47,13,6.46,19.57,3.84,13.2,5.5,19.88,3.17,13.36,4.52,20.11,2.5,13.5,3.52,20.32S837.31,372,838,378.84s1.18,13.69,1.51,20.56.5,13.74.5,20.6Z" transform="translate(0 56.03)"/><g class="cls-2"><path class="cls-3" d="M816.35,130.48,586.73,517.83a249.11,249.11,0,0,0-35,127.68V823.4c0,68.86-54.6,124.81-121.81,124.81H418.72c-67.21,0-121.81-56-121.81-124.81V644.07c0-44.47-11.19-88.94-33.59-126.24L36.5,130.48C-12.5,48.71,44.9-56,138.7-56h1.39c42,0,81.21,21.52,102.22,58.82L376.72,230.9a57,57,0,0,0,99.41,0L610.55,2.79A120.24,120.24,0,0,1,714.15-56C808-56,865.36,48.71,816.35,130.48Z" transform="translate(0 56.03)"/></g></svg>