<?xml version="1.0" encoding="utf-8"?>
<!-- Generator: Adobe Illustrator 23.0.4, SVG Export Plug-In . SVG Version: 6.00 Build 0)  -->
<svg version="1.1" id="Layer_1" xmlns="http://www.w3.org/2000/svg" xmlns:xlink="http://www.w3.org/1999/xlink" x="0px" y="0px"
	 viewBox="0 0 512 512" style="enable-background:new 0 0 512 512;" xml:space="preserve">
<style type="text/css">
	.st0{fill:none;}
	.st1{clip-path:url(#SVGID_2_);}
</style>
<path class="st0" d="M508.86,255.49c0,2.03-0.03,4.07-0.08,6.1c-0.05,2.03-0.13,4.06-0.23,6.09c-0.1,2.03-0.23,4.06-0.38,6.09
	c-0.15,2.03-0.33,4.05-0.53,6.08c-0.2,2.02-0.43,4.04-0.68,6.06s-0.53,4.03-0.84,6.04c-0.3,2.01-0.63,4.02-0.99,6.02
	c-0.35,2-0.73,4-1.14,6c-0.4,1.99-0.83,3.98-1.29,5.97s-0.93,3.96-1.43,5.93c-0.5,1.97-1.03,3.94-1.58,5.9
	c-0.55,1.96-1.13,3.91-1.73,5.86c-0.6,1.95-1.23,3.88-1.87,5.81c-0.65,1.93-1.32,3.85-2.02,5.77s-1.42,3.82-2.16,5.72
	s-1.51,3.78-2.31,5.66s-1.61,3.75-2.45,5.61c-0.84,1.86-1.7,3.71-2.59,5.55c-0.88,1.84-1.79,3.67-2.72,5.48
	c-0.93,1.82-1.88,3.62-2.86,5.41c-0.98,1.79-1.97,3.57-2.99,5.34c-1.02,1.77-2.06,3.53-3.13,5.27c-1.06,1.74-2.15,3.48-3.26,5.19
	c-1.11,1.72-2.24,3.42-3.39,5.11c-1.15,1.69-2.32,3.37-3.51,5.03c-1.19,1.66-2.4,3.31-3.64,4.94c-1.23,1.63-2.49,3.25-3.76,4.85
	s-2.57,3.19-3.88,4.76c-1.31,1.57-2.65,3.13-4,4.67c-1.35,1.54-2.72,3.06-4.11,4.57s-2.8,3-4.22,4.47
	c-1.43,1.47-2.87,2.93-4.34,4.37c-1.46,1.44-2.94,2.86-4.44,4.26c-1.5,1.4-3.01,2.79-4.55,4.15c-1.53,1.37-3.08,2.71-4.65,4.04
	c-1.57,1.33-3.15,2.64-4.75,3.93c-1.6,1.29-3.22,2.56-4.85,3.81c-1.63,1.25-3.28,2.48-4.94,3.69c-1.66,1.21-3.34,2.4-5.03,3.57
	c-1.69,1.17-3.4,2.32-5.12,3.45c-1.72,1.13-3.46,2.24-5.2,3.33c-1.75,1.09-3.51,2.15-5.28,3.2c-1.78,1.05-3.56,2.07-5.36,3.07
	c-1.8,1-3.61,1.98-5.44,2.94c-1.83,0.96-3.66,1.89-5.51,2.81s-3.71,1.81-5.58,2.68c-1.87,0.87-3.75,1.72-5.64,2.54
	c-1.89,0.82-3.79,1.62-5.71,2.4c-1.91,0.78-3.83,1.53-5.76,2.26s-3.87,1.44-5.82,2.13c-1.95,0.69-3.91,1.35-5.87,1.98
	c-1.96,0.64-3.94,1.25-5.92,1.84c-1.98,0.59-3.97,1.16-5.96,1.7c-1.99,0.54-3.99,1.06-6,1.55c-2.01,0.49-4.02,0.96-6.04,1.41
	s-4.04,0.87-6.07,1.26c-2.03,0.4-4.06,0.77-6.1,1.12c-2.04,0.35-4.08,0.67-6.13,0.97s-4.1,0.57-6.15,0.82
	c-2.05,0.25-4.11,0.47-6.17,0.67c-2.06,0.2-4.12,0.37-6.18,0.52s-4.13,0.27-6.2,0.37c-2.07,0.1-4.14,0.17-6.2,0.22
	c-2.07,0.05-4.14,0.07-6.21,0.07c-2.07,0-4.14-0.02-6.21-0.07c-2.07-0.05-4.14-0.12-6.2-0.22c-2.07-0.1-4.13-0.22-6.2-0.37
	s-4.13-0.32-6.18-0.52c-2.06-0.2-4.12-0.42-6.17-0.67s-4.1-0.52-6.15-0.82c-2.05-0.3-4.09-0.62-6.13-0.97s-4.07-0.72-6.1-1.12
	c-2.03-0.4-4.05-0.82-6.07-1.26c-2.02-0.45-4.03-0.92-6.04-1.41c-2.01-0.49-4.01-1.01-6-1.55c-1.99-0.54-3.98-1.11-5.96-1.7
	c-1.98-0.59-3.95-1.2-5.92-1.84c-1.96-0.64-3.92-1.3-5.87-1.98c-1.95-0.69-3.89-1.39-5.82-2.13c-1.93-0.73-3.85-1.49-5.76-2.26
	c-1.91-0.78-3.81-1.58-5.71-2.4c-1.89-0.82-3.77-1.67-5.64-2.54c-1.87-0.87-3.73-1.76-5.58-2.68c-1.85-0.91-3.68-1.85-5.51-2.81
	c-1.83-0.96-3.64-1.94-5.44-2.94c-1.8-1-3.59-2.03-5.36-3.07c-1.78-1.05-3.54-2.11-5.28-3.2c-1.75-1.09-3.48-2.2-5.2-3.33
	c-1.72-1.13-3.43-2.28-5.12-3.45c-1.69-1.17-3.37-2.36-5.03-3.57c-1.66-1.21-3.31-2.44-4.94-3.69c-1.63-1.25-3.25-2.52-4.85-3.81
	c-1.6-1.29-3.18-2.6-4.75-3.93c-1.57-1.33-3.12-2.67-4.65-4.04c-1.53-1.37-3.05-2.75-4.55-4.15c-1.5-1.4-2.98-2.82-4.44-4.26
	c-1.46-1.44-2.91-2.89-4.34-4.37c-1.43-1.47-2.84-2.96-4.22-4.47s-2.76-3.03-4.11-4.57c-1.35-1.54-2.68-3.09-4-4.67
	c-1.31-1.57-2.61-3.16-3.88-4.76s-2.53-3.22-3.76-4.85c-1.23-1.63-2.45-3.28-3.64-4.94c-1.19-1.66-2.36-3.34-3.51-5.03
	c-1.15-1.69-2.28-3.39-3.39-5.11c-1.11-1.72-2.19-3.45-3.26-5.19c-1.06-1.74-2.11-3.5-3.13-5.27c-1.02-1.77-2.02-3.55-2.99-5.34
	c-0.98-1.79-1.93-3.6-2.86-5.41s-1.84-3.64-2.72-5.48c-0.88-1.84-1.75-3.69-2.58-5.55c-0.84-1.86-1.65-3.73-2.45-5.61
	c-0.79-1.88-1.56-3.77-2.31-5.66s-1.47-3.8-2.16-5.72c-0.7-1.91-1.37-3.84-2.02-5.77c-0.65-1.93-1.27-3.87-1.87-5.81
	c-0.6-1.95-1.18-3.9-1.73-5.86c-0.55-1.96-1.08-3.93-1.58-5.9c-0.5-1.97-0.98-3.95-1.43-5.93s-0.88-3.97-1.29-5.97
	c-0.4-1.99-0.78-3.99-1.14-6c-0.35-2-0.68-4.01-0.99-6.02s-0.58-4.03-0.84-6.04c-0.25-2.02-0.48-4.04-0.68-6.06
	c-0.2-2.02-0.38-4.05-0.53-6.08c-0.15-2.03-0.28-4.06-0.38-6.09c-0.1-2.03-0.18-4.06-0.23-6.09c-0.05-2.03-0.08-4.07-0.08-6.1
	c0-2.03,0.03-4.07,0.08-6.1s0.13-4.06,0.23-6.09c0.1-2.03,0.23-4.06,0.38-6.09c0.15-2.03,0.33-4.05,0.53-6.08s0.43-4.04,0.68-6.06
	c0.25-2.02,0.53-4.03,0.84-6.04c0.3-2.01,0.63-4.02,0.99-6.02c0.35-2,0.73-4,1.14-6c0.4-1.99,0.83-3.98,1.29-5.97
	s0.93-3.96,1.43-5.93c0.5-1.97,1.03-3.94,1.58-5.9s1.13-3.91,1.73-5.86c0.6-1.95,1.23-3.88,1.87-5.81c0.65-1.93,1.32-3.85,2.02-5.77
	c0.7-1.91,1.42-3.82,2.16-5.72s1.51-3.78,2.31-5.66c0.79-1.88,1.61-3.75,2.45-5.61c0.84-1.86,1.7-3.71,2.58-5.55
	c0.88-1.84,1.79-3.67,2.72-5.48c0.93-1.82,1.88-3.62,2.86-5.41c0.98-1.79,1.97-3.57,2.99-5.34c1.02-1.77,2.06-3.53,3.13-5.27
	c1.06-1.74,2.15-3.48,3.26-5.19c1.11-1.72,2.24-3.42,3.39-5.11c1.15-1.69,2.32-3.37,3.51-5.03s2.4-3.31,3.64-4.94
	c1.23-1.63,2.49-3.25,3.76-4.85c1.27-1.6,2.57-3.19,3.88-4.76c1.31-1.57,2.65-3.13,4-4.67c1.35-1.54,2.72-3.06,4.11-4.57
	c1.39-1.51,2.8-3,4.22-4.47c1.43-1.47,2.87-2.93,4.34-4.37c1.46-1.44,2.94-2.86,4.44-4.26c1.5-1.4,3.01-2.79,4.55-4.15
	c1.53-1.37,3.08-2.71,4.65-4.04c1.57-1.33,3.15-2.64,4.75-3.93c1.6-1.29,3.22-2.56,4.85-3.81c1.63-1.25,3.28-2.48,4.94-3.69
	c1.66-1.21,3.34-2.4,5.03-3.57c1.69-1.17,3.4-2.32,5.12-3.45c1.72-1.13,3.46-2.24,5.2-3.33c1.75-1.09,3.51-2.15,5.28-3.2
	c1.78-1.05,3.56-2.07,5.36-3.07c1.8-1,3.61-1.98,5.44-2.94c1.83-0.96,3.66-1.89,5.51-2.81c1.85-0.91,3.71-1.81,5.58-2.68
	c1.87-0.87,3.75-1.72,5.64-2.54s3.79-1.62,5.71-2.4s3.83-1.53,5.76-2.26c1.93-0.73,3.87-1.44,5.82-2.13
	c1.95-0.69,3.91-1.35,5.87-1.98c1.96-0.64,3.94-1.25,5.92-1.84c1.98-0.59,3.97-1.16,5.96-1.7c1.99-0.54,3.99-1.06,6-1.55
	c2.01-0.49,4.02-0.96,6.04-1.41s4.04-0.87,6.07-1.26c2.03-0.4,4.06-0.77,6.1-1.12c2.04-0.35,4.08-0.67,6.13-0.97
	c2.05-0.3,4.1-0.57,6.15-0.82s4.11-0.47,6.17-0.67c2.06-0.2,4.12-0.37,6.18-0.52c2.06-0.15,4.13-0.27,6.2-0.37
	c2.07-0.1,4.13-0.17,6.2-0.22c2.07-0.05,4.14-0.07,6.21-0.07c2.07,0,4.14,0.02,6.21,0.07c2.07,0.05,4.14,0.12,6.2,0.22
	c2.07,0.1,4.13,0.22,6.2,0.37c2.06,0.15,4.13,0.32,6.18,0.52c2.06,0.2,4.12,0.42,6.17,0.67c2.05,0.25,4.1,0.52,6.15,0.82
	c2.05,0.3,4.09,0.62,6.13,0.97c2.04,0.35,4.07,0.72,6.1,1.12s4.05,0.82,6.07,1.26s4.03,0.92,6.04,1.41c2.01,0.49,4.01,1.01,6,1.55
	c1.99,0.54,3.98,1.11,5.96,1.7c1.98,0.59,3.95,1.2,5.92,1.84c1.96,0.64,3.92,1.3,5.87,1.98c1.95,0.69,3.89,1.39,5.82,2.13
	c1.93,0.73,3.85,1.49,5.76,2.26c1.91,0.78,3.81,1.58,5.71,2.4s3.77,1.67,5.64,2.54c1.87,0.87,3.73,1.76,5.58,2.68
	c1.85,0.91,3.68,1.85,5.51,2.81c1.83,0.96,3.64,1.94,5.44,2.94s3.59,2.03,5.36,3.07c1.78,1.05,3.54,2.11,5.28,3.2
	c1.75,1.09,3.48,2.2,5.2,3.33c1.72,1.13,3.43,2.28,5.12,3.45c1.69,1.17,3.37,2.36,5.03,3.57c1.66,1.21,3.31,2.44,4.94,3.69
	c1.63,1.25,3.25,2.52,4.85,3.81c1.6,1.29,3.18,2.6,4.75,3.93c1.57,1.33,3.12,2.67,4.65,4.04c1.53,1.37,3.05,2.75,4.55,4.15
	c1.5,1.4,2.98,2.82,4.44,4.26c1.46,1.44,2.91,2.89,4.34,4.37c1.43,1.47,2.83,2.96,4.22,4.47c1.39,1.51,2.76,3.03,4.11,4.57
	c1.35,1.54,2.68,3.09,4,4.67c1.31,1.57,2.61,3.16,3.88,4.76c1.27,1.6,2.53,3.22,3.76,4.85c1.23,1.63,2.45,3.28,3.64,4.94
	s2.36,3.34,3.51,5.03c1.15,1.69,2.28,3.39,3.39,5.11s2.19,3.45,3.26,5.19c1.06,1.74,2.11,3.5,3.13,5.27
	c1.02,1.77,2.02,3.55,2.99,5.34c0.98,1.79,1.93,3.6,2.86,5.41c0.93,1.82,1.84,3.64,2.72,5.48c0.88,1.84,1.75,3.69,2.59,5.55
	c0.84,1.86,1.65,3.73,2.45,5.61c0.79,1.88,1.56,3.77,2.31,5.66c0.74,1.9,1.47,3.8,2.16,5.72s1.37,3.84,2.02,5.77
	c0.65,1.93,1.27,3.87,1.87,5.81c0.6,1.95,1.18,3.9,1.73,5.86c0.55,1.96,1.08,3.93,1.58,5.9c0.5,1.97,0.98,3.95,1.43,5.93
	c0.45,1.98,0.88,3.97,1.29,5.97c0.4,1.99,0.78,3.99,1.14,6s0.68,4.01,0.99,6.02c0.3,2.01,0.58,4.03,0.84,6.04s0.48,4.04,0.68,6.06
	c0.2,2.02,0.38,4.05,0.53,6.08c0.15,2.03,0.28,4.06,0.38,6.09c0.1,2.03,0.18,4.06,0.23,6.09
	C508.83,251.43,508.86,253.46,508.86,255.49L508.86,255.49L508.86,255.49z"/>
<g>
	<defs>
		<path id="SVGID_1_" d="M508.86,255.49c0,4.07-0.1,8.13-0.3,12.19c-0.2,4.06-0.51,8.12-0.91,12.16c-0.41,4.05-0.91,8.08-1.52,12.11
			c-0.61,4.02-1.31,8.03-2.12,12.02c-0.81,3.99-1.71,7.96-2.72,11.9c-1.01,3.95-2.11,7.86-3.31,11.76c-1.2,3.89-2.5,7.75-3.89,11.58
			c-1.39,3.83-2.88,7.62-4.47,11.38c-1.58,3.76-3.26,7.47-5.03,11.15c-1.77,3.68-3.63,7.31-5.58,10.89
			c-1.95,3.59-3.99,7.12-6.12,10.61c-2.13,3.49-4.34,6.92-6.64,10.3c-2.3,3.38-4.68,6.71-7.15,9.97c-2.47,3.27-5.01,6.47-7.64,9.62
			s-5.33,6.22-8.11,9.24c-2.78,3.01-5.63,5.96-8.56,8.83c-2.93,2.88-5.92,5.68-8.99,8.41c-3.07,2.73-6.2,5.39-9.4,7.97
			c-3.2,2.58-6.46,5.08-9.79,7.5c-3.32,2.42-6.71,4.76-10.15,7.02c-3.44,2.26-6.94,4.43-10.49,6.53c-3.55,2.09-7.15,4.09-10.8,6.01
			c-3.65,1.92-7.35,3.75-11.09,5.48c-3.74,1.74-7.53,3.39-11.35,4.94c-3.82,1.56-7.69,3.02-11.58,4.39
			c-3.9,1.37-7.83,2.65-11.79,3.83c-3.96,1.18-7.95,2.26-11.96,3.25c-4.02,0.99-8.05,1.88-12.11,2.67
			c-4.06,0.79-8.14,1.49-12.23,2.09c-4.09,0.6-8.2,1.09-12.32,1.49c-4.12,0.4-8.25,0.7-12.38,0.9c-4.13,0.2-8.27,0.3-12.41,0.3
			s-8.28-0.1-12.41-0.3c-4.13-0.2-8.26-0.5-12.38-0.9c-4.12-0.4-8.23-0.9-12.32-1.49c-4.09-0.6-8.17-1.29-12.23-2.09
			c-4.06-0.79-8.1-1.68-12.11-2.67c-4.02-0.99-8-2.07-11.96-3.25c-3.96-1.18-7.89-2.46-11.79-3.83c-3.9-1.37-7.76-2.83-11.58-4.39
			c-3.82-1.56-7.61-3.2-11.35-4.94c-3.74-1.74-7.44-3.57-11.09-5.48c-3.65-1.92-7.25-3.92-10.8-6.01
			c-3.55-2.09-7.05-4.27-10.49-6.53c-3.44-2.26-6.83-4.6-10.15-7.02c-3.32-2.42-6.59-4.92-9.79-7.5c-3.2-2.58-6.33-5.24-9.4-7.97
			c-3.07-2.73-6.06-5.53-8.99-8.41c-2.93-2.88-5.78-5.82-8.56-8.83c-2.78-3.01-5.48-6.09-8.11-9.24s-5.17-6.35-7.64-9.62
			c-2.47-3.27-4.85-6.59-7.15-9.97c-2.3-3.38-4.51-6.82-6.64-10.3c-2.13-3.49-4.17-7.03-6.12-10.61c-1.95-3.59-3.81-7.22-5.58-10.89
			c-1.77-3.68-3.45-7.39-5.03-11.15c-1.58-3.76-3.07-7.55-4.47-11.38c-1.39-3.83-2.69-7.69-3.89-11.58
			c-1.2-3.89-2.31-7.81-3.31-11.76c-1.01-3.95-1.91-7.91-2.72-11.9c-0.81-3.99-1.51-7.99-2.12-12.02
			c-0.61-4.02-1.11-8.06-1.52-12.11c-0.41-4.05-0.71-8.1-0.91-12.16c-0.2-4.06-0.3-8.13-0.3-12.19s0.1-8.13,0.3-12.19
			c0.2-4.06,0.51-8.12,0.91-12.16s0.91-8.08,1.52-12.11c0.61-4.02,1.31-8.03,2.12-12.02c0.81-3.99,1.71-7.96,2.72-11.9
			c1.01-3.95,2.11-7.86,3.31-11.76c1.2-3.89,2.5-7.75,3.89-11.58c1.39-3.83,2.88-7.62,4.47-11.38c1.58-3.76,3.26-7.47,5.03-11.15
			c1.77-3.68,3.63-7.31,5.58-10.89c1.95-3.59,3.99-7.12,6.12-10.61c2.13-3.49,4.34-6.92,6.64-10.3c2.3-3.38,4.68-6.71,7.15-9.97
			c2.47-3.27,5.01-6.47,7.64-9.62s5.33-6.22,8.11-9.24c2.78-3.01,5.63-5.96,8.56-8.83c2.93-2.88,5.92-5.68,8.99-8.41
			c3.07-2.73,6.2-5.39,9.4-7.97c3.2-2.58,6.46-5.08,9.79-7.5c3.32-2.42,6.71-4.76,10.15-7.02c3.44-2.26,6.94-4.43,10.49-6.53
			c3.55-2.09,7.15-4.09,10.8-6.01c3.65-1.92,7.35-3.75,11.09-5.48c3.74-1.74,7.53-3.39,11.35-4.94s7.69-3.02,11.58-4.39
			c3.9-1.37,7.83-2.65,11.79-3.83c3.96-1.18,7.95-2.26,11.96-3.25c4.02-0.99,8.05-1.88,12.11-2.67c4.06-0.79,8.14-1.49,12.23-2.09
			c4.09-0.6,8.2-1.09,12.32-1.49c4.12-0.4,8.25-0.7,12.38-0.9c4.13-0.2,8.27-0.3,12.41-0.3s8.28,0.1,12.41,0.3
			c4.13,0.2,8.26,0.5,12.38,0.9c4.12,0.4,8.23,0.9,12.32,1.49c4.09,0.6,8.17,1.29,12.23,2.09c4.06,0.79,8.1,1.68,12.11,2.67
			c4.02,0.99,8,2.07,11.96,3.25c3.96,1.18,7.89,2.46,11.79,3.83c3.9,1.37,7.76,2.83,11.58,4.39c3.82,1.56,7.61,3.2,11.35,4.94
			c3.74,1.74,7.44,3.57,11.09,5.48c3.65,1.92,7.25,3.92,10.8,6.01c3.55,2.09,7.05,4.27,10.49,6.53c3.44,2.26,6.83,4.6,10.15,7.02
			c3.32,2.42,6.59,4.92,9.79,7.5c3.2,2.58,6.33,5.24,9.4,7.97c3.07,2.73,6.06,5.53,8.99,8.41c2.93,2.88,5.78,5.82,8.56,8.83
			c2.78,3.01,5.48,6.09,8.11,9.24s5.17,6.35,7.64,9.62c2.47,3.27,4.85,6.59,7.15,9.97c2.3,3.38,4.51,6.82,6.64,10.3
			c2.13,3.49,4.17,7.03,6.12,10.61c1.95,3.59,3.81,7.22,5.58,10.89c1.77,3.68,3.45,7.39,5.03,11.15c1.58,3.76,3.07,7.55,4.47,11.38
			c1.39,3.83,2.69,7.69,3.89,11.58c1.2,3.89,2.31,7.81,3.31,11.76c1.01,3.95,1.91,7.91,2.72,11.9c0.81,3.99,1.51,7.99,2.12,12.02
			c0.61,4.02,1.11,8.06,1.52,12.11c0.41,4.05,0.71,8.1,0.91,12.16C508.76,247.36,508.86,251.43,508.86,255.49L508.86,255.49z"/>
	</defs>
	<clipPath id="SVGID_2_">
		<use xlink:href="#SVGID_1_"  style="overflow:visible;"/>
	</clipPath>
	<path class="st1" d="M493.88,84.31L356.02,313.43C342.57,335.49,335,361.8,335,388.95v105.22c0,40.73-32.79,73.83-73.14,73.83
		h-6.73c-40.35,0-73.14-33.09-73.14-73.83V388.1c0-26.31-6.73-52.61-20.18-74.67L25.64,84.31C-3.79,35.95,30.68-26,87.01-26h0.84
		c25.22,0,48.76,12.73,61.37,34.79l80.7,134.92c13.45,22.91,46.24,22.91,59.69,0l80.7-134.92C383.76-13.27,407.3-26,432.52-26
		C488.84-26,523.31,35.95,493.88,84.31L493.88,84.31z"/>
</g>
</svg>
