<svg id="Layer_1" data-name="Layer 1" xmlns="http://www.w3.org/2000/svg" xmlns:xlink="http://www.w3.org/1999/xlink" viewBox="0 0 808.85 128.33"><defs><style>.cls-1{fill:none;}.cls-2{clip-path:url(#clip-path);}.cls-3{fill:#fff;}</style><clipPath id="clip-path" transform="translate(-941.7 -145.14)"><path class="cls-1" d="M1054.66,207.48c0,.9,0,1.8-.07,2.7s-.12,1.79-.21,2.69-.2,1.79-.34,2.68-.29,1.77-.47,2.66-.38,1.76-.61,2.63-.47,1.74-.74,2.6-.55,1.72-.87,2.57-.64,1.68-1,2.51-.73,1.66-1.13,2.47-.81,1.62-1.24,2.41-.89,1.58-1.37,2.35-1,1.53-1.48,2.28-1.05,1.49-1.6,2.21-1.12,1.43-1.7,2.13-1.19,1.38-1.81,2-1.26,1.32-1.92,2-1.32,1.25-2,1.86-1.39,1.19-2.1,1.76-1.45,1.13-2.19,1.66-1.5,1.06-2.26,1.56-1.55,1-2.35,1.44-1.59.91-2.41,1.33-1.64.83-2.47,1.22-1.68.75-2.54,1.09-1.71.67-2.59,1-1.74.59-2.63.85-1.77.5-2.67.72-1.8.41-2.7.59-1.82.33-2.73.46-1.84.24-2.76.33-1.84.16-2.76.2-1.85.07-2.77.07-1.85,0-2.77-.07-1.85-.11-2.77-.2-1.83-.2-2.75-.33-1.82-.28-2.73-.46-1.81-.37-2.7-.59-1.79-.46-2.68-.72-1.76-.55-2.63-.85-1.73-.63-2.58-1-1.7-.71-2.54-1.09-1.66-.79-2.48-1.22-1.61-.87-2.41-1.33-1.57-.94-2.34-1.44-1.52-1-2.27-1.56-1.47-1.09-2.18-1.66-1.42-1.16-2.1-1.76-1.35-1.23-2-1.86-1.29-1.29-1.91-2-1.22-1.35-1.81-2-1.15-1.41-1.71-2.13-1.08-1.46-1.59-2.21-1-1.51-1.48-2.28-.93-1.55-1.37-2.35-.85-1.59-1.25-2.41-.77-1.63-1.12-2.47-.69-1.67-1-2.51-.6-1.71-.87-2.57-.51-1.73-.74-2.6-.42-1.75-.6-2.63-.34-1.77-.48-2.66-.25-1.79-.34-2.68-.16-1.8-.2-2.69-.07-1.8-.07-2.7,0-1.8.07-2.7.11-1.8.2-2.69.21-1.79.34-2.68.3-1.78.48-2.66.38-1.76.6-2.64.47-1.74.74-2.6.56-1.71.87-2.56.65-1.69,1-2.52.73-1.66,1.12-2.47.81-1.62,1.25-2.41.89-1.58,1.37-2.35,1-1.53,1.48-2.28,1-1.48,1.59-2.21,1.12-1.43,1.71-2.12,1.19-1.38,1.81-2.05,1.26-1.32,1.91-1.95,1.33-1.26,2-1.87,1.38-1.19,2.1-1.76,1.44-1.12,2.18-1.66,1.5-1.05,2.27-1.55,1.55-1,2.34-1.45,1.6-.9,2.41-1.33,1.65-.83,2.48-1.21,1.68-.75,2.54-1.1,1.71-.66,2.58-1,1.75-.58,2.63-.84,1.78-.51,2.68-.72,1.79-.42,2.7-.6,1.82-.33,2.73-.46,1.83-.24,2.75-.33,1.84-.15,2.77-.2,1.84-.06,2.77-.06,1.85,0,2.77.06,1.84.11,2.76.2,1.84.2,2.76.33,1.82.29,2.73.46,1.8.38,2.7.6,1.79.45,2.67.72,1.76.54,2.63.84,1.74.63,2.59,1,1.7.71,2.54,1.1,1.66.79,2.47,1.21,1.62.87,2.41,1.33,1.58.95,2.35,1.45,1.52,1,2.26,1.55,1.47,1.09,2.19,1.66,1.41,1.16,2.1,1.76,1.35,1.23,2,1.87,1.29,1.28,1.92,1.95,1.22,1.35,1.81,2.05,1.15,1.4,1.7,2.12,1.08,1.46,1.6,2.21,1,1.51,1.48,2.28.93,1.56,1.37,2.35.85,1.6,1.24,2.41.77,1.64,1.13,2.47.68,1.67,1,2.52.61,1.7.87,2.56.52,1.73.74,2.6.43,1.75.61,2.64.34,1.77.47,2.66.25,1.78.34,2.68.16,1.79.21,2.69.07,1.8.07,2.7Z"/></clipPath></defs><title>yakkl-full</title><path d="M1144.85,168.85l-25.46,40.34v37h-20.05V209.5l-25.62-40.65h22l13.57,22.82L1123,168.85Zm61.66,77.31-5-14.31h-30.94l-4.95,14.31h-20.36l28.46-77.31h24.68l28.47,77.31Zm-30.2-30.82h19.47l-9.73-28-9.74,28Zm106.39,30.82-21.83-31h-4.79v31h-20V168.85h20v28.93h4.63l22.62-28.93h24.36l-29.62,37,30.15,40.28Zm81.34,0-21.83-31h-4.79v31h-20.05V168.85h20.05v28.93h4.63l22.62-28.93H1389l-29.63,37,30.15,40.28Zm54.72-17.57h22.63v17.57h-42.68V168.85h20V228.6Zm41.62,18.62a10.39,10.39,0,1,1,10.42-10.31,10.48,10.48,0,0,1-10.42,10.31Zm61.08,0c-23.36,0-40.14-15.72-40.14-39.71s16.78-39.76,40.14-39.76c18.47,0,32.89,9.68,38,25.41l-18.73,6.57c-2.57-8.63-10-13.78-19.31-13.78-11.62,0-20.25,8.31-20.25,21.56s8.63,21.51,20.25,21.51c9.32,0,16.74-5.15,19.31-13.78l18.73,6.58c-5.15,15.72-19.57,25.4-38,25.4Zm83.82,0c-23.36,0-40.15-15.83-40.15-39.71,0-24,16.79-39.76,40.15-39.76s40.2,15.73,40.2,39.76c0,23.88-16.79,39.71-40.2,39.71Zm0-18.2c11.68,0,20.41-8.25,20.41-21.51s-8.73-21.56-20.41-21.56S1585,194.25,1585,207.5s8.63,21.51,20.26,21.51Zm145.27,17.15h-20l-5-54.49-16.36,54.49h-13.26l-16.37-54.75-5.1,54.75h-20.15l6.79-77.31h29.3l12.1,39.5,12.26-39.5h29.21l6.68,77.31Z" transform="translate(-941.7 -145.14)"/><path d="M1054.66,207.48c0,.9,0,1.8-.07,2.7s-.12,1.79-.21,2.69-.2,1.79-.34,2.68-.29,1.77-.47,2.66-.38,1.76-.61,2.63-.47,1.74-.74,2.6-.55,1.72-.87,2.57-.64,1.68-1,2.51-.73,1.66-1.13,2.47-.81,1.62-1.24,2.41-.89,1.58-1.37,2.35-1,1.53-1.48,2.28-1.05,1.49-1.6,2.21-1.12,1.43-1.7,2.13-1.19,1.38-1.81,2-1.26,1.32-1.92,2-1.32,1.25-2,1.86-1.39,1.19-2.1,1.76-1.45,1.13-2.19,1.66-1.5,1.06-2.26,1.56-1.55,1-2.35,1.44-1.59.91-2.41,1.33-1.64.83-2.47,1.22-1.68.75-2.54,1.09-1.71.67-2.59,1-1.74.59-2.63.85-1.77.5-2.67.72-1.8.41-2.7.59-1.82.33-2.73.46-1.84.24-2.76.33-1.84.16-2.76.2-1.85.07-2.77.07-1.85,0-2.77-.07-1.85-.11-2.77-.2-1.83-.2-2.75-.33-1.82-.28-2.73-.46-1.81-.37-2.7-.59-1.79-.46-2.68-.72-1.76-.55-2.63-.85-1.73-.63-2.58-1-1.7-.71-2.54-1.09-1.66-.79-2.48-1.22-1.61-.87-2.41-1.33-1.57-.94-2.34-1.44-1.52-1-2.27-1.56-1.47-1.09-2.18-1.66-1.42-1.16-2.1-1.76-1.35-1.23-2-1.86-1.29-1.29-1.91-2-1.22-1.35-1.81-2-1.15-1.41-1.71-2.13-1.08-1.46-1.59-2.21-1-1.51-1.48-2.28-.93-1.55-1.37-2.35-.85-1.59-1.25-2.41-.77-1.63-1.12-2.47-.69-1.67-1-2.51-.6-1.71-.87-2.57-.51-1.73-.74-2.6-.42-1.75-.6-2.63-.34-1.77-.48-2.66-.25-1.79-.34-2.68-.16-1.8-.2-2.69-.07-1.8-.07-2.7,0-1.8.07-2.7.11-1.8.2-2.69.21-1.79.34-2.68.3-1.78.48-2.66.38-1.76.6-2.64.47-1.74.74-2.6.56-1.71.87-2.56.65-1.69,1-2.52.73-1.66,1.12-2.47.81-1.62,1.25-2.41.89-1.58,1.37-2.35,1-1.53,1.48-2.28,1-1.48,1.59-2.21,1.12-1.43,1.71-2.12,1.19-1.38,1.81-2.05,1.26-1.32,1.91-1.95,1.33-1.26,2-1.87,1.38-1.19,2.1-1.76,1.44-1.12,2.18-1.66,1.5-1.05,2.27-1.55,1.55-1,2.34-1.45,1.6-.9,2.41-1.33,1.65-.83,2.48-1.21,1.68-.75,2.54-1.1,1.71-.66,2.58-1,1.75-.58,2.63-.84,1.78-.51,2.68-.72,1.79-.42,2.7-.6,1.82-.33,2.73-.46,1.83-.24,2.75-.33,1.84-.15,2.77-.2,1.84-.06,2.77-.06,1.85,0,2.77.06,1.84.11,2.76.2,1.84.2,2.76.33,1.82.29,2.73.46,1.8.38,2.7.6,1.79.45,2.67.72,1.76.54,2.63.84,1.74.63,2.59,1,1.7.71,2.54,1.1,1.66.79,2.47,1.21,1.62.87,2.41,1.33,1.58.95,2.35,1.45,1.52,1,2.26,1.55,1.47,1.09,2.19,1.66,1.41,1.16,2.1,1.76,1.35,1.23,2,1.87,1.29,1.28,1.92,1.95,1.22,1.35,1.81,2.05,1.15,1.4,1.7,2.12,1.08,1.46,1.6,2.21,1,1.51,1.48,2.28.93,1.56,1.37,2.35.85,1.6,1.24,2.41.77,1.64,1.13,2.47.68,1.67,1,2.52.61,1.7.87,2.56.52,1.73.74,2.6.43,1.75.61,2.64.34,1.77.47,2.66.25,1.78.34,2.68.16,1.79.21,2.69.07,1.8.07,2.7Z" transform="translate(-941.7 -145.14)"/><g class="cls-2"><path class="cls-3" d="M1051.48,169l-30.88,49.5a30.64,30.64,0,0,0-4.7,16.31v22.74a16.19,16.19,0,0,1-16.38,16H998a16.19,16.19,0,0,1-16.38-16V234.61a30.23,30.23,0,0,0-4.52-16.13L946.62,169c-6.59-10.45,1.13-23.84,13.74-23.84h.19a15.79,15.79,0,0,1,13.74,7.52l18.07,29.15a7.87,7.87,0,0,0,13.37,0l18.07-29.15a16.37,16.37,0,0,1,13.93-7.52c12.62,0,20.34,13.39,13.75,23.84Z" transform="translate(-941.7 -145.14)"/></g></svg>